<svg xmlns="http://www.w3.org/2000/svg" viewBox="0 0 800 800" width="800" height="800" aria-hidden="true">
<!-- Üretildi: tools/build-chapters.mjs — elle düzenleme, betiği çalıştır. -->
<defs><radialGradient id="sky" cx=".34" cy=".24" r=".92"><stop offset="0" stop-color="#3a2a06"/><stop offset=".34" stop-color="#1b1305"/><stop offset=".72" stop-color="#0b0803"/><stop offset="1" stop-color="#050403"/></radialGradient>
<linearGradient id="beam" x1="0" y1="0" x2="0" y2="1"><stop offset="0" stop-color="#fff1c4" stop-opacity=".46"/><stop offset=".42" stop-color="#ffd766" stop-opacity=".15"/><stop offset="1" stop-color="#ffd766" stop-opacity="0"/></linearGradient>
<radialGradient id="pool"><stop offset="0" stop-color="#ffe9a3" stop-opacity=".62"/><stop offset=".45" stop-color="#e9c552" stop-opacity=".2"/><stop offset="1" stop-color="#d4af37" stop-opacity="0"/></radialGradient>
<radialGradient id="halo"><stop offset="0" stop-color="#fff2c8" stop-opacity=".5"/><stop offset=".38" stop-color="#e9c552" stop-opacity=".2"/><stop offset=".74" stop-color="#d4af37" stop-opacity=".05"/><stop offset="1" stop-color="#d4af37" stop-opacity="0"/></radialGradient>
<radialGradient id="soft"><stop offset="0" stop-color="#fff3c4" stop-opacity=".8"/><stop offset=".5" stop-color="#f5d76e" stop-opacity=".28"/><stop offset="1" stop-color="#f5d76e" stop-opacity="0"/></radialGradient>
<linearGradient id="brass" x1="0" y1="0" x2="1" y2="1"><stop offset="0" stop-color="#ffe27a"/><stop offset=".35" stop-color="#c99a20"/><stop offset=".62" stop-color="#8c6a14"/><stop offset="1" stop-color="#3a2a06"/></linearGradient>
<linearGradient id="near" x1="0" y1="0" x2="0" y2="1"><stop offset="0" stop-color="#241a06"/><stop offset="1" stop-color="#0b0803"/></linearGradient>
<radialGradient id="vig" cx=".46" cy=".42" r=".78"><stop offset=".52" stop-color="#050403" stop-opacity="0"/><stop offset="1" stop-color="#050403" stop-opacity=".7"/></radialGradient></defs>

<rect width="800" height="800" fill="url(#sky)"/>
<g fill="url(#beam)"><path d="M160 -200L60 646L85.4 646Z" opacity="0"/><path d="M160 -200L85.4 646L110.8 646Z" opacity="0"/><path d="M160 -200L110.8 646L136.2 646Z" opacity="0.1"/><path d="M160 -200L136.2 646L161.5 646Z" opacity="0.1"/><path d="M160 -200L161.5 646L186.9 646Z" opacity="0.2"/><path d="M160 -200L186.9 646L212.3 646Z" opacity="0.2"/><path d="M160 -200L212.3 646L237.7 646Z" opacity="0.3"/><path d="M160 -200L237.7 646L263.1 646Z" opacity="0.4"/><path d="M160 -200L263.1 646L288.5 646Z" opacity="0.5"/><path d="M160 -200L288.5 646L313.8 646Z" opacity="0.6"/><path d="M160 -200L313.8 646L339.2 646Z" opacity="0.7"/><path d="M160 -200L339.2 646L364.6 646Z" opacity="0.7"/><path d="M160 -200L364.6 646L390 646Z" opacity="0.7"/><path d="M160 -200L390 646L415.4 646Z" opacity="0.7"/><path d="M160 -200L415.4 646L440.8 646Z" opacity="0.7"/><path d="M160 -200L440.8 646L466.2 646Z" opacity="0.7"/><path d="M160 -200L466.2 646L491.5 646Z" opacity="0.6"/><path d="M160 -200L491.5 646L516.9 646Z" opacity="0.5"/><path d="M160 -200L516.9 646L542.3 646Z" opacity="0.4"/><path d="M160 -200L542.3 646L567.7 646Z" opacity="0.3"/><path d="M160 -200L567.7 646L593.1 646Z" opacity="0.2"/><path d="M160 -200L593.1 646L618.5 646Z" opacity="0.2"/><path d="M160 -200L618.5 646L643.8 646Z" opacity="0.1"/><path d="M160 -200L643.8 646L669.2 646Z" opacity="0.1"/><path d="M160 -200L669.2 646L694.6 646Z" opacity="0"/><path d="M160 -200L694.6 646L720 646Z" opacity="0"/></g>
<g transform="translate(400 388)"><circle class="glow" r="286" fill="url(#halo)"/></g>
<rect x="0" y="646" width="800" height="154" fill="url(#near)"/>
<path d="M0 646H800" stroke="#ffe9a3" stroke-width="2" opacity=".3"/>
<ellipse cx="400" cy="646" rx="256" ry="48" fill="url(#pool)"/>
<defs><linearGradient id="gmr1" x1="0" y1="646" x2="0" y2="776" gradientUnits="userSpaceOnUse"><stop offset="0" stop-color="#fff" stop-opacity=".9"/><stop offset=".55" stop-color="#fff" stop-opacity=".22"/><stop offset="1" stop-color="#fff" stop-opacity="0"/></linearGradient><mask id="mr1" maskUnits="userSpaceOnUse" x="0" y="646" width="800" height="130"><rect x="0" y="646" width="800" height="130" fill="url(#gmr1)"/></mask></defs><g mask="url(#mr1)" opacity="0.3"><g transform="translate(0 1292) scale(1 -1)"><g fill="none" stroke="#e9c552" stroke-width="2.4" stroke-opacity=".5"><path d="M400 388L400 219.4"/><path d="M400 388L569.7 303.7"/><path d="M400 388L569.7 472.3"/><path d="M400 388L400 556.6"/><path d="M400 388L230.3 472.3"/><path d="M400 388L230.3 303.7"/></g>
<g fill="none" stroke="#e2bd4a" stroke-width="1.6" stroke-opacity=".22" stroke-dasharray="4 12"><path d="M400 219.4L569.7 303.7"/><path d="M569.7 303.7L569.7 472.3"/><path d="M569.7 472.3L400 556.6"/><path d="M400 556.6L230.3 472.3"/><path d="M230.3 472.3L230.3 303.7"/><path d="M230.3 303.7L400 219.4"/></g>
<g transform="translate(400 219.4)"><circle r="58" fill="url(#soft)" opacity=".45"/><g class="nd"><path d="M0 -37L32 -18.5L32 18.5L0 37L-32 18.5L-32 -18.5Z" fill="#1c1307" stroke="url(#brass)" stroke-width="4"/><path d="M-32 -18.5L0 -37L32 -18.5" fill="none" stroke="#ffe9a3" stroke-width="2.6" opacity=".8"/></g></g><g transform="translate(569.7 303.7)"><circle r="58" fill="url(#soft)" opacity=".45"/><g class="nd"><path d="M0 -37L32 -18.5L32 18.5L0 37L-32 18.5L-32 -18.5Z" fill="#1c1307" stroke="url(#brass)" stroke-width="4"/><path d="M-32 -18.5L0 -37L32 -18.5" fill="none" stroke="#ffe9a3" stroke-width="2.6" opacity=".8"/></g></g><g transform="translate(569.7 472.3)"><circle r="58" fill="url(#soft)" opacity=".45"/><g class="nd"><path d="M0 -37L32 -18.5L32 18.5L0 37L-32 18.5L-32 -18.5Z" fill="#1c1307" stroke="url(#brass)" stroke-width="4"/><path d="M-32 -18.5L0 -37L32 -18.5" fill="none" stroke="#ffe9a3" stroke-width="2.6" opacity=".8"/></g></g><g transform="translate(400 556.6)"><circle r="58" fill="url(#soft)" opacity=".45"/><g class="nd"><path d="M0 -37L32 -18.5L32 18.5L0 37L-32 18.5L-32 -18.5Z" fill="#1c1307" stroke="url(#brass)" stroke-width="4"/><path d="M-32 -18.5L0 -37L32 -18.5" fill="none" stroke="#ffe9a3" stroke-width="2.6" opacity=".8"/></g></g><g transform="translate(230.3 472.3)"><circle r="58" fill="url(#soft)" opacity=".45"/><g class="nd"><path d="M0 -37L32 -18.5L32 18.5L0 37L-32 18.5L-32 -18.5Z" fill="#1c1307" stroke="url(#brass)" stroke-width="4"/><path d="M-32 -18.5L0 -37L32 -18.5" fill="none" stroke="#ffe9a3" stroke-width="2.6" opacity=".8"/></g></g><g transform="translate(230.3 303.7)"><circle r="58" fill="url(#soft)" opacity=".45"/><g class="nd"><path d="M0 -37L32 -18.5L32 18.5L0 37L-32 18.5L-32 -18.5Z" fill="#1c1307" stroke="url(#brass)" stroke-width="4"/><path d="M-32 -18.5L0 -37L32 -18.5" fill="none" stroke="#ffe9a3" stroke-width="2.6" opacity=".8"/></g></g><g transform="translate(400 388)"><circle r="106" fill="url(#soft)" opacity=".45"/>
<g class="core"><path d="M0 -68L58.9 -34L58.9 34L0 68L-58.9 34L-58.9 -34Z" fill="#160f05" stroke="url(#brass)" stroke-width="5.5"/>
<path d="M-58.9 -34L0 -68L58.9 -34" fill="none" stroke="#ffe9a3" stroke-width="3.4" opacity=".85"/></g></g></g></g>
<g fill="none" stroke="#e9c552" stroke-width="2.4" stroke-opacity=".5"><path d="M400 388L400 219.4"/><path d="M400 388L569.7 303.7"/><path d="M400 388L569.7 472.3"/><path d="M400 388L400 556.6"/><path d="M400 388L230.3 472.3"/><path d="M400 388L230.3 303.7"/></g>
<g fill="none" stroke="#e2bd4a" stroke-width="1.6" stroke-opacity=".22" stroke-dasharray="4 12"><path d="M400 219.4L569.7 303.7"/><path d="M569.7 303.7L569.7 472.3"/><path d="M569.7 472.3L400 556.6"/><path d="M400 556.6L230.3 472.3"/><path d="M230.3 472.3L230.3 303.7"/><path d="M230.3 303.7L400 219.4"/></g>
<g transform="translate(400 219.4)"><circle r="58" fill="url(#soft)" opacity=".45"/><g class="nd"><path d="M0 -37L32 -18.5L32 18.5L0 37L-32 18.5L-32 -18.5Z" fill="#1c1307" stroke="url(#brass)" stroke-width="4"/><path d="M-32 -18.5L0 -37L32 -18.5" fill="none" stroke="#ffe9a3" stroke-width="2.6" opacity=".8"/></g></g><g transform="translate(569.7 303.7)"><circle r="58" fill="url(#soft)" opacity=".45"/><g class="nd"><path d="M0 -37L32 -18.5L32 18.5L0 37L-32 18.5L-32 -18.5Z" fill="#1c1307" stroke="url(#brass)" stroke-width="4"/><path d="M-32 -18.5L0 -37L32 -18.5" fill="none" stroke="#ffe9a3" stroke-width="2.6" opacity=".8"/></g></g><g transform="translate(569.7 472.3)"><circle r="58" fill="url(#soft)" opacity=".45"/><g class="nd"><path d="M0 -37L32 -18.5L32 18.5L0 37L-32 18.5L-32 -18.5Z" fill="#1c1307" stroke="url(#brass)" stroke-width="4"/><path d="M-32 -18.5L0 -37L32 -18.5" fill="none" stroke="#ffe9a3" stroke-width="2.6" opacity=".8"/></g></g><g transform="translate(400 556.6)"><circle r="58" fill="url(#soft)" opacity=".45"/><g class="nd"><path d="M0 -37L32 -18.5L32 18.5L0 37L-32 18.5L-32 -18.5Z" fill="#1c1307" stroke="url(#brass)" stroke-width="4"/><path d="M-32 -18.5L0 -37L32 -18.5" fill="none" stroke="#ffe9a3" stroke-width="2.6" opacity=".8"/></g></g><g transform="translate(230.3 472.3)"><circle r="58" fill="url(#soft)" opacity=".45"/><g class="nd"><path d="M0 -37L32 -18.5L32 18.5L0 37L-32 18.5L-32 -18.5Z" fill="#1c1307" stroke="url(#brass)" stroke-width="4"/><path d="M-32 -18.5L0 -37L32 -18.5" fill="none" stroke="#ffe9a3" stroke-width="2.6" opacity=".8"/></g></g><g transform="translate(230.3 303.7)"><circle r="58" fill="url(#soft)" opacity=".45"/><g class="nd"><path d="M0 -37L32 -18.5L32 18.5L0 37L-32 18.5L-32 -18.5Z" fill="#1c1307" stroke="url(#brass)" stroke-width="4"/><path d="M-32 -18.5L0 -37L32 -18.5" fill="none" stroke="#ffe9a3" stroke-width="2.6" opacity=".8"/></g></g><g transform="translate(400 388)"><circle r="106" fill="url(#soft)" opacity=".45"/>
<g class="core"><path d="M0 -68L58.9 -34L58.9 34L0 68L-58.9 34L-58.9 -34Z" fill="#160f05" stroke="url(#brass)" stroke-width="5.5"/>
<path d="M-58.9 -34L0 -68L58.9 -34" fill="none" stroke="#ffe9a3" stroke-width="3.4" opacity=".85"/></g></g>
<g fill="none" stroke-linecap="round"></g>
<g fill="#fff3c4" opacity=".55"><circle class="mote" cx="407.2" cy="284.4" r="1.1"/><circle class="mote" cx="611.9" cy="320.9" r="1.3"/><circle class="mote" cx="587" cy="282.3" r="2.1"/><circle class="mote" cx="525.8" cy="312.5" r="1.7"/><circle class="mote" cx="486.9" cy="170.9" r="1.5"/><circle class="mote" cx="561.2" cy="245.8" r="2"/><circle class="mote" cx="185.4" cy="487.2" r="2.7"/><circle class="mote" cx="408.9" cy="306.9" r="2.7"/><circle class="mote" cx="494.6" cy="237.6" r="2.4"/><circle class="mote" cx="314.8" cy="254.9" r="2.6"/><circle class="mote" cx="152.1" cy="331.6" r="2.4"/><circle class="mote" cx="303.5" cy="178.5" r="1.3"/><circle class="mote" cx="195.3" cy="182.8" r="1.3"/><circle class="mote" cx="394.7" cy="284.2" r="1.9"/><circle class="mote" cx="193.8" cy="200.4" r="2.8"/><circle class="mote" cx="570.8" cy="253.7" r="2.5"/></g>
<rect width="800" height="800" fill="url(#vig)"/>
</svg>
