<svg xmlns="http://www.w3.org/2000/svg" viewBox="0 0 800 800" width="800" height="800" aria-hidden="true">
<!-- Üretildi: tools/build-chapters.mjs — elle düzenleme, betiği çalıştır. -->
<defs>
<radialGradient id="bg" cx=".5" cy=".62" r=".78"><stop offset="0" stop-color="#2a1e07"/><stop offset=".45" stop-color="#120d05"/><stop offset="1" stop-color="#060503"/></radialGradient>
<radialGradient id="soft"><stop offset="0" stop-color="#fff3c4" stop-opacity=".85"/><stop offset=".5" stop-color="#f5d76e" stop-opacity=".3"/><stop offset="1" stop-color="#f5d76e" stop-opacity="0"/></radialGradient>
<radialGradient id="halo"><stop offset="0" stop-color="#fff2c8" stop-opacity=".55"/><stop offset=".35" stop-color="#e9bf48" stop-opacity=".26"/><stop offset=".72" stop-color="#d4af37" stop-opacity=".07"/><stop offset="1" stop-color="#d4af37" stop-opacity="0"/></radialGradient>
<radialGradient id="vig" cx=".5" cy=".5" r=".72"><stop offset=".55" stop-color="#060503" stop-opacity="0"/><stop offset="1" stop-color="#060503" stop-opacity=".72"/></radialGradient>
<linearGradient id="gold" x1="0" y1="0" x2="1" y2="1"><stop offset="0" stop-color="#fbe9a6"/><stop offset=".5" stop-color="#d4af37"/><stop offset="1" stop-color="#8c6a14"/></linearGradient>
<linearGradient id="goldUp" x1="0" y1="1" x2="0" y2="0"><stop offset="0" stop-color="#8c6a14"/><stop offset=".55" stop-color="#d4af37"/><stop offset="1" stop-color="#fff3c4"/></linearGradient>
<linearGradient id="floor" x1="0" y1="0" x2="0" y2="1"><stop offset="0" stop-color="#d4af37" stop-opacity="0"/><stop offset="1" stop-color="#d4af37" stop-opacity=".16"/></linearGradient></defs>
<style>
.tw{animation:tw 3s ease-in-out infinite alternate}
.breathe{transform-box:fill-box;transform-origin:center;animation:breathe 5s ease-in-out infinite alternate}
@keyframes tw{from{opacity:.18}to{opacity:1}}
@keyframes breathe{from{opacity:.72;transform:scale(.96)}to{opacity:1;transform:scale(1.05)}}
@keyframes spin{to{transform:rotate(360deg)}}
.nd{transform-box:fill-box;transform-origin:center;animation:nd 4.8s ease-in-out infinite}
.core{transform-box:fill-box;transform-origin:center;animation:core 3.6s ease-in-out infinite alternate}
.orb{animation:spin 64s linear infinite}
@keyframes pk0{from{stroke-dashoffset:22}to{stroke-dashoffset:-183}}.pk0{animation:pk0 3.4s linear -1.5s infinite}@keyframes pk1{from{stroke-dashoffset:22}to{stroke-dashoffset:-202}}.pk1{animation:pk1 3.1s linear -0.5s infinite}@keyframes pk2{from{stroke-dashoffset:22}to{stroke-dashoffset:-202}}.pk2{animation:pk2 4.1s linear -2.3s infinite}@keyframes pk3{from{stroke-dashoffset:22}to{stroke-dashoffset:-183}}.pk3{animation:pk3 4s linear -1.2s infinite}@keyframes pk4{from{stroke-dashoffset:22}to{stroke-dashoffset:-202}}.pk4{animation:pk4 3s linear -1.7s infinite}@keyframes pk5{from{stroke-dashoffset:22}to{stroke-dashoffset:-202}}.pk5{animation:pk5 3.4s linear -2.5s infinite}
@keyframes nd{0%,100%{transform:scale(1)}50%{transform:scale(1.1)}}
@keyframes core{from{transform:scale(.95)}to{transform:scale(1.08)}}</style>
<rect width="800" height="800" fill="url(#bg)"/>
<g fill="none" stroke="#d4af37" stroke-width="1" opacity=".05"><path d="M50 0V800"/><path d="M100 0V800"/><path d="M150 0V800"/><path d="M200 0V800"/><path d="M250 0V800"/><path d="M300 0V800"/><path d="M350 0V800"/><path d="M400 0V800"/><path d="M450 0V800"/><path d="M500 0V800"/><path d="M550 0V800"/><path d="M600 0V800"/><path d="M650 0V800"/><path d="M700 0V800"/><path d="M750 0V800"/><path d="M0 50H800"/><path d="M0 100H800"/><path d="M0 150H800"/><path d="M0 200H800"/><path d="M0 250H800"/><path d="M0 300H800"/><path d="M0 350H800"/><path d="M0 400H800"/><path d="M0 450H800"/><path d="M0 500H800"/><path d="M0 550H800"/><path d="M0 600H800"/><path d="M0 650H800"/><path d="M0 700H800"/><path d="M0 750H800"/></g>
<g transform="translate(400 388)"><circle class="breathe" r="300" fill="url(#halo)"/>
<g class="orb" fill="none" stroke="#f5d76e" stroke-opacity=".24" stroke-width="2" stroke-dasharray="3 16" stroke-linecap="round"><circle r="272"/></g></g>
<g fill="none" stroke="#e2bd4a" stroke-width="2" stroke-opacity=".45"><path d="M400 388L400 205"/><path d="M400 388L580.1 296.5"/><path d="M400 388L580.1 479.5"/><path d="M400 388L400 571"/><path d="M400 388L219.9 479.5"/><path d="M400 388L219.9 296.5"/></g>
<g fill="none" stroke="#e2bd4a" stroke-width="1.6" stroke-opacity=".26" stroke-dasharray="4 12"><path d="M400 205L580.1 296.5"/><path d="M580.1 296.5L580.1 479.5"/><path d="M580.1 479.5L400 571"/><path d="M400 571L219.9 479.5"/><path d="M219.9 479.5L219.9 296.5"/><path d="M219.9 296.5L400 205"/></g>
<g fill="none" stroke-linecap="round"><path class="pk0" d="M400 388L400 205" stroke="#ffd766" stroke-width="7" stroke-opacity=".22" stroke-dasharray="22 187"/><path class="pk0" d="M400 388L400 205" stroke="#fff8e0" stroke-width="2.6" stroke-dasharray="22 187"/><path class="pk1" d="M400 388L580.1 296.5" stroke="#ffd766" stroke-width="7" stroke-opacity=".22" stroke-dasharray="22 206"/><path class="pk1" d="M400 388L580.1 296.5" stroke="#fff8e0" stroke-width="2.6" stroke-dasharray="22 206"/><path class="pk2" d="M400 388L580.1 479.5" stroke="#ffd766" stroke-width="7" stroke-opacity=".22" stroke-dasharray="22 206"/><path class="pk2" d="M400 388L580.1 479.5" stroke="#fff8e0" stroke-width="2.6" stroke-dasharray="22 206"/><path class="pk3" d="M400 388L400 571" stroke="#ffd766" stroke-width="7" stroke-opacity=".22" stroke-dasharray="22 187"/><path class="pk3" d="M400 388L400 571" stroke="#fff8e0" stroke-width="2.6" stroke-dasharray="22 187"/><path class="pk4" d="M400 388L219.9 479.5" stroke="#ffd766" stroke-width="7" stroke-opacity=".22" stroke-dasharray="22 206"/><path class="pk4" d="M400 388L219.9 479.5" stroke="#fff8e0" stroke-width="2.6" stroke-dasharray="22 206"/><path class="pk5" d="M400 388L219.9 296.5" stroke="#ffd766" stroke-width="7" stroke-opacity=".22" stroke-dasharray="22 206"/><path class="pk5" d="M400 388L219.9 296.5" stroke="#fff8e0" stroke-width="2.6" stroke-dasharray="22 206"/></g>
<g transform="translate(400 205)"><circle r="54" fill="url(#soft)" opacity=".45"/><path class="nd" d="M0 -30L26 -15L26 15L0 30L-26 15L-26 -15Z" fill="#171003" stroke="url(#gold)" stroke-width="3.4" style="animation-delay:-0s"/></g><g transform="translate(580.1 296.5)"><circle r="54" fill="url(#soft)" opacity=".45"/><path class="nd" d="M0 -30L26 -15L26 15L0 30L-26 15L-26 -15Z" fill="#171003" stroke="url(#gold)" stroke-width="3.4" style="animation-delay:-0.8s"/></g><g transform="translate(580.1 479.5)"><circle r="54" fill="url(#soft)" opacity=".45"/><path class="nd" d="M0 -30L26 -15L26 15L0 30L-26 15L-26 -15Z" fill="#171003" stroke="url(#gold)" stroke-width="3.4" style="animation-delay:-1.6s"/></g><g transform="translate(400 571)"><circle r="54" fill="url(#soft)" opacity=".45"/><path class="nd" d="M0 -30L26 -15L26 15L0 30L-26 15L-26 -15Z" fill="#171003" stroke="url(#gold)" stroke-width="3.4" style="animation-delay:-2.4s"/></g><g transform="translate(219.9 479.5)"><circle r="54" fill="url(#soft)" opacity=".45"/><path class="nd" d="M0 -30L26 -15L26 15L0 30L-26 15L-26 -15Z" fill="#171003" stroke="url(#gold)" stroke-width="3.4" style="animation-delay:-3.2s"/></g><g transform="translate(219.9 296.5)"><circle r="54" fill="url(#soft)" opacity=".45"/><path class="nd" d="M0 -30L26 -15L26 15L0 30L-26 15L-26 -15Z" fill="#171003" stroke="url(#gold)" stroke-width="3.4" style="animation-delay:-4s"/></g>
<g transform="translate(400 388)"><circle r="110" fill="url(#soft)" opacity=".5"/>
<path class="core" d="M0 -62L53.7 -31L53.7 31L0 62L-53.7 31L-53.7 -31Z" fill="#120d05" stroke="url(#gold)" stroke-width="5"/>
<path d="M0 -40L34.6 -20L34.6 20L0 40L-34.6 20L-34.6 -20Z" fill="none" stroke="#fff3c4" stroke-width="2" opacity=".55"/></g>
<circle class="tw" cx="71.8" cy="528.7" r="0.9" fill="#fff3c4" style="animation-duration:3.2s;animation-delay:-0.1s"/><circle class="tw" cx="638.8" cy="159.5" r="1.7" fill="#fff3c4" style="animation-duration:3.8s;animation-delay:-0.5s"/><circle class="tw" cx="667.7" cy="772.3" r="2" fill="#ffd766" style="animation-duration:3.5s;animation-delay:-1.8s"/><circle class="tw" cx="755" cy="449.3" r="1.4" fill="#fff3c4" style="animation-duration:2.5s;animation-delay:-3.9s"/><circle class="tw" cx="734.2" cy="495.5" r="1.1" fill="#fff3c4" style="animation-duration:3.3s;animation-delay:-4s"/><circle class="tw" cx="470.8" cy="37.4" r="1.3" fill="#fff3c4" style="animation-duration:2.8s;animation-delay:-3.4s"/><circle class="tw" cx="655" cy="96.8" r="0.9" fill="#fff3c4" style="animation-duration:5s;animation-delay:-3.4s"/><circle class="tw" cx="569.3" cy="94.4" r="1" fill="#ffd766" style="animation-duration:2.8s;animation-delay:-4s"/><circle class="tw" cx="653" cy="176.2" r="2.1" fill="#fff3c4" style="animation-duration:3.8s;animation-delay:-2.4s"/><circle class="tw" cx="756.9" cy="718.5" r="1.3" fill="#fff3c4" style="animation-duration:3.4s;animation-delay:-2.4s"/><circle class="tw" cx="70" cy="765.1" r="2.3" fill="#fff3c4" style="animation-duration:4.4s;animation-delay:-1.1s"/><circle class="tw" cx="695.8" cy="27" r="1.6" fill="#fff3c4" style="animation-duration:2.3s;animation-delay:-3.6s"/><circle class="tw" cx="775.6" cy="577.7" r="2" fill="#fff3c4" style="animation-duration:4.2s;animation-delay:-1.2s"/><circle class="tw" cx="702.8" cy="632.2" r="1.7" fill="#fff3c4" style="animation-duration:4.2s;animation-delay:-4.1s"/><circle class="tw" cx="753.8" cy="656.7" r="1" fill="#fff3c4" style="animation-duration:3.6s;animation-delay:-0.2s"/><circle class="tw" cx="41.7" cy="315" r="1" fill="#fff3c4" style="animation-duration:3.1s;animation-delay:-1.2s"/><circle class="tw" cx="551.3" cy="85.8" r="1.8" fill="#fff3c4" style="animation-duration:4.5s;animation-delay:-4.9s"/><circle class="tw" cx="18.6" cy="115.7" r="1.9" fill="#fff3c4" style="animation-duration:4.3s;animation-delay:-2.2s"/><circle class="tw" cx="69.5" cy="138.1" r="1.8" fill="#fff3c4" style="animation-duration:4.7s;animation-delay:-0.1s"/><circle class="tw" cx="771.4" cy="774.4" r="1.4" fill="#ffd766" style="animation-duration:4.5s;animation-delay:-0.3s"/><circle class="tw" cx="481.5" cy="731.1" r="1.5" fill="#fff3c4" style="animation-duration:2.5s;animation-delay:-5s"/><circle class="tw" cx="756.4" cy="84.5" r="2.1" fill="#fff3c4" style="animation-duration:3.5s;animation-delay:-0.4s"/><circle class="tw" cx="52.1" cy="515" r="1.5" fill="#fff3c4" style="animation-duration:2.7s;animation-delay:-2.4s"/><circle class="tw" cx="797.1" cy="493.2" r="2.2" fill="#fff3c4" style="animation-duration:4.5s;animation-delay:-4.1s"/><circle class="tw" cx="579.4" cy="789.5" r="1.4" fill="#fff3c4" style="animation-duration:4.7s;animation-delay:-1.3s"/><circle class="tw" cx="91.6" cy="598.1" r="1.8" fill="#fff3c4" style="animation-duration:2.1s;animation-delay:-4.8s"/>
<rect width="800" height="800" fill="url(#vig)"/>
</svg>
